<svg width="2547" height="1140" viewBox="0 0 2547 1140" fill="none" xmlns="http://www.w3.org/2000/svg">
<path d="M0 570V1140H1273.33H2546.67V570V1.57952e-06H1273.33H0V570ZM2505.33 570V1098.67H1273.33H41.3333V570V41.3333H1273.33H2505.33V570Z" fill="#CD0001"/>
<path d="M58.6667 570V1081.33H1273.33H2488V576.933C2488 299.6 2487.6 69.4666 2487.2 65.5999L2486.27 58.6666H1272.53H58.6667V570ZM761.333 220C795.2 224.133 827.2 236.267 851.333 254.267C863.867 263.6 881.2 281.467 888.4 292.4C895.867 303.6 904.667 323.067 908 335.333C912.133 350.667 913.067 380.4 910 398.8C900.267 456.933 862.4 503.733 807.067 526C740 553.067 656.267 538.4 606.133 490.667C565.6 452.133 551.333 399.6 566 342C581.2 281.867 630.933 236.667 696.4 223.2C718 218.8 741.733 217.6 761.333 220ZM1098 221.867C1102.4 222.933 1110.8 225.333 1116.53 227.2C1128.4 231.067 1137.47 231.733 1140 228.667C1140.93 227.6 1143.87 226.667 1146.53 226.667H1151.47L1155.2 254.933C1157.2 270.533 1159.2 284.933 1159.6 286.933C1160.27 290.533 1160.13 290.667 1155.07 290.667C1150 290.667 1149.87 290.533 1145.07 280.933C1133.73 258 1113.87 241.333 1090.53 235.333C1084.27 233.6 1078.27 233.2 1067.73 233.6C1054.53 234.133 1052.67 234.533 1043.47 239.2C1031.73 244.933 1025.33 251.733 1021.2 262.533C1017.2 273.067 1018.13 287.467 1023.33 297.467C1032 314.4 1044.8 325.2 1089.2 353.333C1125.2 376.267 1132.67 381.733 1147.33 396.667C1165.87 415.333 1173.07 429.867 1174.27 450.667C1175.2 465.6 1173.2 475.733 1166.67 488.8C1151.33 520 1117.2 539.067 1076.67 539.2C1059.6 539.2 1049.2 537.467 1023.73 530.667C1005.87 525.867 1004.13 525.867 999.467 529.467C997.2 531.2 994.533 532 991.733 531.733L987.333 531.333L985.733 520C982.533 498 977.333 459.067 977.333 457.467C977.333 456.4 979.2 456 982.8 456.267L988.267 456.667L991.867 466.667C1002.27 496.267 1023.47 515.6 1052.53 522C1080.27 528.133 1111.2 518.533 1125.6 499.333C1132.67 489.867 1135.33 481.6 1135.33 468C1135.33 458.133 1134.8 455.6 1131.2 447.867C1123.07 430.667 1107.73 417.467 1062.67 388.667C1032 369.2 1016.53 357.6 1005.2 345.733C993.733 334 986.533 322.667 982.667 310.8C980.133 302.667 979.733 299.333 980.267 287.333C980.8 274.533 981.333 272.533 986 263.067C997.067 240.533 1020.8 224.533 1049.73 220.133C1060.53 218.4 1087.87 219.467 1098 221.867ZM1245.73 221.867C1248.13 224.267 1250.93 225.333 1257.47 226C1262.13 226.4 1318.8 226.667 1383.33 226.4C1505.2 226 1506.67 225.867 1506.67 220.667C1506.67 219.2 1508.27 218.667 1512.67 218.667C1516.93 218.667 1518.67 219.2 1518.67 220.533C1518.67 223.2 1525.2 289.2 1526 294.933L1526.67 300H1520.93H1515.33L1512.4 286.133C1508.4 266.133 1502.13 253.6 1494 248.933C1492.13 247.867 1476.4 247.067 1444.27 246.667L1397.33 246L1397.6 374L1398 502L1400.93 507.467C1405.87 516.8 1412.8 519.2 1435.07 519.733L1453.33 520.267V526.133V532H1375.33H1297.33V526.133V520.267L1316.4 519.733C1333.6 519.333 1335.87 518.933 1341.2 516C1348.67 511.867 1351.47 507.2 1353.2 496C1354.13 490.4 1354.67 444.667 1354.67 366.933V246.667L1312.4 246.533C1289.07 246.4 1268.27 246.533 1266 246.667C1259.47 247.067 1253.87 250.133 1250 255.2C1246.67 259.6 1238.67 280.267 1238.67 284.667C1238.67 285.733 1238 289.6 1237.2 293.333C1235.73 300 1235.73 300 1230.53 300C1226.53 300 1225.33 299.467 1225.33 297.6C1225.33 293.867 1232.13 222.133 1232.8 220.267C1233.6 217.333 1242.27 218.4 1245.73 221.867ZM1775.07 222C1843.6 234.133 1897.07 281.733 1909.47 342C1912.27 355.733 1912.8 380.533 1910.53 396.8C1902.67 453.6 1862.53 503.867 1807.33 526.133C1780.8 536.8 1749.87 541.333 1720.27 538.8C1650.27 532.8 1592.67 494.4 1570.53 439.067C1563.73 422.133 1560.93 407.067 1560.93 386C1560.8 321.067 1593.33 267.6 1650.53 238.8C1667.87 230 1697.6 222 1722 219.467C1732.13 218.4 1763.33 219.867 1775.07 222ZM375.333 222.667C420.267 225.867 442.667 233.333 460 250.667C474.533 265.333 479.467 278.267 478.4 299.067C477.867 308.933 477.067 311.867 472.933 320.4C465.2 336 449.867 348.667 431.333 354.667C428.267 355.733 426.8 356.667 428 357.067C434.667 359.067 450 366.533 457.6 371.467C476 383.333 488.933 400.533 494 420C495.733 426.533 496.133 432 495.6 442.667C493.867 479.067 472 509.6 437.867 523.2C417.867 531.2 420.133 531.067 311.467 531.6C243.6 532 211.333 531.733 210.667 530.8C210.267 530 210.133 527.2 210.4 524.667L210.933 520H225.2C240.8 520 253.067 517.6 258.533 513.733C260.4 512.4 263.467 508.267 265.333 504.533L268.667 498V379.333C268.667 267.733 268.533 260.267 266.267 254.4C263.467 247.067 258 242 250.933 240C248.267 239.2 238.933 238.133 230.4 237.733L214.667 236.933V231.867C214.667 227.2 214.933 226.933 219.733 226.133C226.267 225.2 291.2 222.533 317.333 222.267C328.667 222 342.267 221.733 347.333 221.6C352.533 221.467 365.067 222 375.333 222.667ZM2043.87 230C2046.13 233.067 2067.73 255.733 2119.47 309.333C2139.33 330 2195.2 388.267 2216.67 410.667C2225.33 419.867 2240.53 435.6 2250.4 445.6L2268.13 464L2267.73 360.267L2267.33 256.667L2264.13 251.067C2259.6 243.2 2248.93 238.8 2234.53 238.667C2231.07 238.667 2226.4 238.267 2224.13 237.867C2220.4 237.067 2220 236.533 2220 231.867V226.667H2278H2336V232C2336 236.133 2335.47 237.333 2333.73 237.333C2324 237.467 2305.73 240.4 2301.6 242.533C2292.13 247.333 2292.8 237.6 2292 394L2291.33 535.333L2284.67 535.2H2278L2264 520.533C2256.27 512.533 2242.4 498.133 2233.33 488.667C2224.27 479.067 2210.13 464.4 2202 456C2193.87 447.6 2155.87 407.6 2117.33 367.333C2078.93 326.933 2042.8 289.2 2037.07 283.333L2026.67 272.667L2026.93 386C2027.33 487.2 2027.6 499.867 2029.47 504C2034.4 514.533 2043.07 518.667 2062.4 519.733L2076 520.4V526.267V532L2018.4 531.733L1960.67 531.333V526V520.667L1971.87 519.733C1986.4 518.533 1994 514.8 1998.67 506.533L2002 500.667V374.667V248.8L1994.93 245.2C1988 241.733 1980 239.6 1967.73 238L1961.33 237.2V231.867V226.667H2001.2H2041.2L2043.87 230ZM1677.87 704.133C1691.2 707.867 1692.4 708 1695.33 706.133C1700.4 702.8 1703.73 703.467 1704.53 707.6C1705.6 712.667 1709.33 742.667 1709.33 745.6C1709.33 747.2 1708.27 748 1706 748C1703.33 748 1702 746.667 1699.2 740.667C1686.67 715.067 1656.4 702.933 1632.53 713.867C1621.2 719.067 1614.67 731.067 1616.67 743.2C1619.07 757.333 1629.07 767.2 1661.33 787.333C1693.33 807.333 1707.87 820.4 1715.2 836C1718.8 843.6 1719.33 846.133 1719.2 856C1719.2 870.8 1715.73 880 1705.87 890.533C1687.33 910.667 1658.27 916.667 1624 907.467C1610.4 903.733 1604.67 903.2 1603.33 905.333C1602.93 906 1600.8 906.667 1598.8 906.667H1595.07L1592.13 884.933C1590.4 873.067 1588.8 861.6 1588.4 859.6C1587.6 856 1587.87 855.867 1592 856.267C1595.87 856.667 1596.53 857.333 1599.07 864C1610.27 894.267 1640 908.4 1669.6 897.333C1684.4 891.867 1692.53 880.267 1692.67 864.667C1692.67 847.333 1684.67 838.667 1643.87 811.6C1612.13 790.533 1602.27 781.733 1595.07 767.067C1590.8 758.533 1590.27 756 1590.27 747.6C1590.27 730.8 1599.07 716.4 1614.4 708.267C1625.6 702.267 1634.8 700.133 1650.13 700.133C1661.33 700 1666 700.667 1677.87 704.133ZM1912 702C1913.47 703.733 1924.53 704 1997.33 704C2070.13 704 2081.2 703.733 2082.67 702C2084.67 699.6 2092 699.333 2092 701.6C2092 702.533 2093.2 714.4 2094.53 728C2096 741.6 2096.67 753.067 2096.27 753.6C2094.27 755.6 2089.33 752.933 2088.53 749.467C2085.73 736.133 2082.13 727.2 2078 723.067L2073.6 718.667H2042.8H2012V802.267C2012 866.133 2012.4 886.8 2013.73 889.2C2017.2 896 2021.73 897.867 2036 898.4L2049.33 898.933V902.8V906.667H1997.33H1945.33V902.667V898.667L1956.4 898.533C1969.47 898.533 1975.47 896.667 1979.2 891.6C1982 887.867 1982 886.667 1982.4 803.2L1982.8 718.667H1952.4C1930.93 718.667 1921.07 719.2 1918.67 720.4C1914.27 722.533 1910 731.333 1907.2 743.467C1906 748.933 1904.67 753.333 1904.13 753.467C1903.73 753.467 1902 753.733 1900.4 754.133C1896.67 754.8 1896.8 756.533 1899.33 728.267C1902.13 699.2 1901.87 700 1906.53 700C1908.67 700 1911.07 700.933 1912 702ZM1464.67 706.533C1486.27 712.267 1502.4 723.6 1509.2 737.6C1521.73 763.733 1510.53 795.867 1484.27 808.933L1476.53 812.933L1493.73 834.8C1541.6 895.733 1542.93 896.933 1565.73 901.867C1568.67 902.533 1569.33 903.467 1569.33 906.933V911.067L1554.4 910.267C1536.4 909.2 1525.6 906.667 1517.07 901.2C1507.87 895.333 1489.87 875.733 1469.07 849.2C1459.07 836.4 1449.73 824.933 1448.4 823.867C1446.4 822.267 1442.27 822 1425.73 822.4L1405.33 822.933V853.467C1405.33 895.2 1406.4 897.333 1427.47 898.4L1438.67 899.067V902.8V906.667H1392H1345.33V902.8C1345.33 899.067 1345.33 899.067 1355.47 898.4C1367.07 897.6 1371.73 895.067 1374.27 887.867C1376.53 881.467 1376.53 730.533 1374.27 724.133C1371.73 717.067 1367.33 714.667 1355.6 713.733C1345.33 712.933 1345.33 712.933 1345.33 709.2C1345.33 705.467 1345.6 705.333 1351.73 705.2C1355.2 705.067 1364.27 704.533 1372 704C1379.73 703.467 1401.33 703.067 1420 703.333C1450.13 703.6 1455.2 703.867 1464.67 706.533ZM296.667 708.667C296.667 712.667 296.533 712.667 288 713.467C278 714.267 274.267 716 270.933 720.933C268.933 724.267 268.667 729.467 268.667 782C268.667 844.533 268.8 845.733 276.933 861.867C283.733 875.2 299.2 886.4 317.333 890.8C326.933 893.2 354.533 893.2 364 890.8C388.267 884.8 402.4 872.133 409.733 850.267C412.267 842.667 412.533 838.4 413.067 793.2C413.333 764.4 412.933 740.4 412.133 734.667C410.133 719.467 405.733 715.333 390.267 713.6C382.133 712.667 382 712.667 381.6 708.267L381.2 704L420.267 704.267L459.333 704.667V708.667C459.333 712.533 459.067 712.667 451.333 713.6C442.933 714.667 438.667 717.067 434.133 723.2C431.467 726.667 431.333 728.933 430.533 785.067C429.867 840.933 429.733 843.733 426.8 852.667C418.133 879.467 400.667 897.333 375.067 905.867C354.133 912.933 320.533 913.867 300 908C276.267 901.2 257.467 886.8 248.667 868.8C239.733 850.533 239.6 849.733 238.8 782.4L238 721.333L234.533 717.867C231.467 714.933 229.467 714.267 221.467 713.6L212 712.933V708.533V704L254.4 704.267L296.667 704.667V708.667ZM548 708.933C550.4 711.733 560 721.867 569.2 731.333C578.4 740.933 610 773.733 639.333 804.4L692.667 860L693.067 794.4C693.333 750 692.933 727.067 692 723.733C690.133 717.2 685.067 714.533 672 713.467L662 712.667V708.667V704.667L701.067 704.267L740.133 704L739.733 708.267L739.333 712.667L729.333 713.467C718.667 714.133 714.267 715.867 712 720C711.2 721.6 710.667 754.8 710.667 815.867V909.333H705.467C700.4 909.333 699.333 908.267 660.533 867.6C638.667 844.8 614.4 819.333 606.667 811.333C598.8 803.2 579.6 783.2 563.867 766.8L535.333 736.933L534.933 805.467C534.667 843.2 534.933 877.2 535.333 881.067C536.8 893.467 544.667 898.667 562 898.667C567.733 898.667 568 898.8 568 902.667V906.667H529.333H490.667V902.8C490.667 899.2 490.933 899.067 498.933 898.133C508 897.2 512.133 895.2 515.6 889.733C517.867 886.4 518 879.733 518.4 803.067L518.8 719.867L512.4 717.067C508.933 715.467 502.667 713.867 498.667 713.467C491.6 712.667 491.333 712.533 490.933 708.267L490.533 704H517.067H543.733L548 708.933ZM863.733 708.267C863.333 712.533 863.2 712.667 855.333 713.467C850.933 713.867 845.733 715.2 843.733 716.533C836.8 721.067 836.667 722.4 836.667 806.667C836.667 891.467 836.533 889.333 844.133 894.933C846.267 896.533 850.8 897.867 855.733 898.267C863.733 899.067 864 899.2 864 902.8V906.667H824H784V902.8C784 899.333 784.533 898.933 790 898.267C793.333 897.733 797.733 896.533 799.867 895.467C807.333 891.467 807.333 891.867 807.333 804.667C807.333 730.667 807.2 724.267 805.067 720.933C802 716.4 798.667 714.667 790.667 713.733C784.133 712.933 784 712.8 784 708.533V704H824.133H864.133L863.733 708.267ZM984.267 705.6C984.667 706.533 984.667 708.533 984.267 710.133C983.867 712.667 982.667 713.067 973.467 713.733C957.733 714.8 951.067 719.067 952.4 727.2C952.8 729.733 958.267 744.533 964.533 760.133C970.933 775.867 983.733 807.733 993.067 830.933C1002.4 854.267 1010.27 873.333 1010.8 873.333C1011.2 873.333 1016.4 860.267 1022.53 844.267C1040.67 797.067 1053.2 764.133 1058.67 750C1065.07 733.333 1066.53 727.2 1065.07 721.867C1063.73 716.4 1059.07 714.4 1046.4 713.6L1036 712.933V708.533V704H1074.67H1113.33V708.667C1113.33 713.2 1113.2 713.333 1108.27 713.333C1100.67 713.333 1092 718.4 1087.2 725.467C1084.93 728.8 1080.27 739.067 1076.67 748.133C1073.2 757.2 1067.73 771.2 1064.53 779.333C1061.47 787.333 1053.07 808.933 1046 827.333C1038.93 845.6 1028.67 872.267 1023.2 886.267L1013.07 912H1004.27H995.333L958.667 820.533C938.533 770.133 920.8 726.933 919.333 724.267C915.333 717.2 910.267 714.133 901.6 713.333C894.133 712.667 894 712.533 893.6 708.267L893.2 704H938.533C972.8 704 983.867 704.4 984.267 705.6ZM1292.13 716C1292.67 722.267 1293.33 732.667 1293.47 739.333L1294 751.333L1290.4 751.733C1287.33 752.133 1286.67 751.6 1286 748.4C1282.8 734 1279.73 726.8 1275.33 722.8L1270.53 718.667H1233.33H1196V756.667V794.667H1228.53H1260.93L1264.4 791.2C1267.47 788.267 1270.67 778.533 1270.67 772.667C1270.67 771.333 1272 770.667 1274.67 770.667H1278.67V802.667V834.667H1274.8C1271.33 834.667 1270.93 834.133 1270.13 829.067C1268.67 820.133 1264.53 812.133 1260.67 810.667C1258.67 809.867 1243.6 809.333 1226.53 809.333H1195.87L1196.27 846.933C1196.67 888 1196.93 889.333 1204.13 891.867C1210.93 894.267 1267.2 893.867 1275.47 891.333C1285.47 888.4 1291.07 881.2 1296.53 864.267C1298.67 858 1299.2 857.333 1302.8 857.333C1304.93 857.333 1306.67 858 1306.67 858.667C1306.67 861.2 1302.67 897.867 1302 902.267L1301.2 906.667H1214.67H1128V902.8V899.067L1141.2 898.4C1151.07 897.867 1155.47 897.067 1158.8 895.2C1167.6 890 1167.33 892.933 1167.33 805.333C1167.33 731.2 1167.2 725.733 1164.93 721.6C1161.87 716 1155.73 713.333 1146.13 713.333C1136.4 713.333 1134.67 712.533 1134.67 707.867V704L1213.07 704.267L1291.33 704.667L1292.13 716ZM1856.27 706.267C1857.47 711.867 1856 713.333 1848.67 713.333C1839.73 713.333 1833.33 717.333 1830.93 724.667C1829.6 728.667 1829.33 747.333 1829.6 808.8C1830 886.8 1830 887.867 1832.8 891.6C1835.87 895.6 1843.07 898.4 1851.07 898.533C1855.6 898.667 1856 898.933 1856 902.667V906.667H1816H1776V902.8C1776 899.2 1776.4 898.933 1783.6 898C1793.2 896.8 1798 892.4 1799.33 883.867C1799.73 880.667 1800 843.2 1799.73 800.667C1799.33 734.667 1799.07 722.933 1797.33 720.267C1795.2 717.067 1787.33 713.6 1780.67 713.067C1777.2 712.667 1776.67 712 1776.27 708.267L1775.87 704H1815.87C1852.8 704 1855.87 704.133 1856.27 706.267ZM2200 708.667C2200 713.333 2200 713.333 2194.13 713.333C2180 713.333 2175.87 716.4 2179.2 724.533C2181.07 729.067 2229.47 804.533 2232.53 807.733C2233.73 808.933 2234.93 807.867 2238.13 802.4C2240.4 798.533 2250.53 781.2 2260.67 764C2280.93 729.6 2283.47 724.4 2282.13 719.6C2281.2 715.6 2279.07 714.667 2269.33 713.467C2262.27 712.667 2262 712.533 2262 708.667V704.667L2298 704.267C2317.73 704.133 2334.67 704.267 2335.47 704.533C2336.27 704.8 2336.67 706.933 2336.27 709.2C2335.73 712.667 2335.07 713.333 2332 713.333C2326.4 713.333 2316.27 716.8 2310.67 720.667C2303.73 725.467 2301.07 729.467 2270 782L2242.53 828.267L2242.93 857.2C2243.47 894.8 2244.4 896.667 2264 898.533C2272.27 899.333 2272.67 899.467 2273.07 902.933L2273.47 906.667H2227.47H2181.33V902.667V898.667L2189.73 898.533C2200.53 898.4 2206.67 896.133 2210.4 890.667C2213.2 886.4 2213.33 885.067 2213.33 858.533V830.8L2181.87 781.733C2164.67 754.8 2148.27 730 2145.47 726.667C2138.53 718.4 2131.07 714.533 2120.53 713.6L2112 712.933V708.533V704H2156H2200V708.667Z" fill="#CD0001"/>
<path d="M712 234.267C687.067 237.467 663.733 249.333 647.2 266.8C594.4 323.2 596 426 650.533 483.2C673.2 506.8 700.267 520.4 732.133 524.133C756.4 526.933 776.8 523.733 796.667 514C836.8 494.533 861.2 451.2 863.6 395.2C867.067 314 824.8 251.067 756.933 236.533C747.2 234.4 720.533 233.067 712 234.267Z" fill="#CD0001"/>
<path d="M1712.67 234.267C1694.13 236.533 1671.6 245.867 1658 256.933C1634.8 275.733 1618.13 306 1611.33 341.467C1608.53 356.133 1608.53 386.533 1611.33 402.533C1616.93 434.933 1630.27 461.733 1651.87 484.267C1668.8 502.133 1690 514.533 1714.67 520.933C1730.93 525.2 1760.53 525.867 1775.07 522.267C1822.4 510.533 1854.4 469.733 1862.8 410.8C1865.2 393.733 1863.6 361.333 1859.6 344C1845.47 283.6 1803.2 242.533 1747.47 234.8C1737.6 233.467 1721.33 233.2 1712.67 234.267Z" fill="#CD0001"/>
<path d="M322.4 234.267L312 234.8V294.267V353.6L348.4 352.933C387.867 352.267 397.2 350.8 410.133 343.2C427.467 333.067 435.867 312 432.133 287.6C428.133 260.933 411.467 243.467 383.6 236.533C375.067 234.4 342.267 233.2 322.4 234.267Z" fill="#CD0001"/>
<path d="M312 420.8C312 467.333 312.4 479.6 314.133 486.667C319.333 509.2 334.8 516.933 371.333 515.6C392 514.8 400.533 512.8 414.533 505.333C435.2 494.267 448 469.867 448 441.333C448 406 426.4 378.267 390.667 368C381.867 365.467 376.267 364.933 346.4 364.4L312 363.6V420.8Z" fill="#CD0001"/>
<path d="M1405.33 762.533V814.667H1421.07C1446.13 814.667 1459.33 810.267 1469.87 798.667C1477.6 790 1480.27 782.667 1480.93 767.333C1481.87 750.8 1479.87 740.8 1474.27 732.4C1464.53 717.867 1450.93 712.267 1423.07 711.067L1405.33 710.267V762.533Z" fill="#CD0001"/>
</svg>
