<?xml version="1.0" standalone="no"?>
<!DOCTYPE svg PUBLIC "-//W3C//DTD SVG 20010904//EN"
 "http://www.w3.org/TR/2001/REC-SVG-20010904/DTD/svg10.dtd">
<svg version="1.0" xmlns="http://www.w3.org/2000/svg"
 width="2348.000000pt" height="1426.000000pt" viewBox="0 0 2348.000000 1426.000000"
 preserveAspectRatio="xMidYMid meet">

<g transform="translate(0.000000,1426.000000) scale(0.100000,-0.100000)"
fill="#000000" stroke="none">
<path d="M2150 7185 l0 -4275 9550 0 9550 0 0 4275 0 4275 -9550 0 -9550 0 0
-4275z m18790 0 l0 -3965 -9240 0 -9240 0 0 3965 0 3965 9240 0 9240 0 0
-3965z"/>
<path d="M2590 7185 l0 -3835 9110 0 9110 0 0 3783 c0 2080 -3 3806 -6 3835
l-7 52 -9103 0 -9104 0 0 -3835z m5270 2625 c254 -31 494 -122 675 -257 94
-70 224 -204 278 -286 56 -84 122 -230 147 -322 31 -115 38 -338 15 -476 -73
-436 -357 -787 -772 -954 -503 -203 -1131 -93 -1507 265 -304 289 -411 683
-301 1115 114 451 487 790 978 891 162 33 340 42 487 24z m2525 -14 c33 -8 96
-26 139 -40 89 -29 157 -34 176 -11 7 8 29 15 49 15 l37 0 28 -212 c15 -117
30 -225 33 -240 5 -27 4 -28 -34 -28 -38 0 -39 1 -75 73 -85 172 -234 297
-409 342 -47 13 -92 16 -171 13 -99 -4 -113 -7 -182 -42 -88 -43 -136 -94
-167 -175 -30 -79 -23 -187 16 -262 65 -127 161 -208 494 -419 270 -172 326
-213 436 -325 139 -140 193 -249 202 -405 7 -112 -8 -188 -57 -286 -115 -234
-371 -377 -675 -378 -128 0 -206 13 -397 64 -134 36 -147 36 -182 9 -17 -13
-37 -19 -58 -17 l-33 3 -12 85 c-24 165 -63 457 -63 469 0 8 14 11 41 9 l41
-3 27 -75 c78 -222 237 -367 455 -415 208 -46 440 26 548 170 53 71 73 133 73
235 0 74 -4 93 -31 151 -61 129 -176 228 -514 444 -230 146 -346 233 -431 322
-86 88 -140 173 -169 262 -19 61 -22 86 -18 176 4 96 8 111 43 182 83 169 261
289 478 322 81 13 286 5 362 -13z m1108 0 c18 -18 39 -26 88 -31 35 -3 460 -5
944 -3 914 3 925 4 925 43 0 11 12 15 45 15 32 0 45 -4 45 -14 0 -20 49 -515
55 -558 l5 -38 -43 0 -42 0 -22 104 c-30 150 -77 244 -138 279 -14 8 -132 14
-373 17 l-352 5 2 -960 3 -960 22 -41 c37 -70 89 -88 256 -92 l137 -4 0 -44 0
-44 -585 0 -585 0 0 44 0 44 143 4 c129 3 146 6 186 28 56 31 77 66 90 150 7
42 11 385 11 968 l0 902 -317 1 c-175 1 -331 0 -348 -1 -49 -3 -91 -26 -120
-64 -25 -33 -85 -188 -85 -221 0 -8 -5 -37 -11 -65 -11 -50 -11 -50 -50 -50
-30 0 -39 4 -39 18 0 28 51 566 56 580 6 22 71 14 97 -12z m3970 -1 c514 -91
915 -448 1008 -900 21 -103 25 -289 8 -411 -59 -426 -360 -803 -774 -970 -199
-80 -431 -114 -653 -95 -525 45 -957 333 -1123 748 -51 127 -72 240 -72 398
-1 487 243 888 672 1104 130 66 353 126 536 145 76 8 310 -3 398 -19z m-10498
-5 c337 -24 505 -80 635 -210 109 -110 146 -207 138 -363 -4 -74 -10 -96 -41
-160 -58 -117 -173 -212 -312 -257 -23 -8 -34 -15 -25 -18 50 -15 165 -71 222
-108 138 -89 235 -218 273 -364 13 -49 16 -90 12 -170 -13 -273 -177 -502
-433 -604 -150 -60 -133 -59 -948 -63 -509 -3 -751 -1 -756 6 -3 6 -4 27 -2
46 l4 35 107 0 c117 0 209 18 250 47 14 10 37 41 51 69 l25 49 0 890 c0 837
-1 893 -18 937 -21 55 -62 93 -115 108 -20 6 -90 14 -154 17 l-118 6 0 38 c0
35 2 37 38 43 49 7 536 27 732 29 85 2 187 4 225 5 39 1 133 -3 210 -8z
m12514 -55 c17 -23 179 -193 567 -595 149 -155 568 -592 729 -760 65 -69 179
-187 253 -262 l133 -138 -3 778 -3 777 -24 42 c-34 59 -114 92 -222 93 -26 0
-61 3 -78 6 -28 6 -31 10 -31 45 l0 39 435 0 435 0 0 -40 c0 -31 -4 -40 -17
-40 -73 -1 -210 -23 -241 -39 -71 -36 -66 37 -72 -1136 l-5 -1060 -50 1 -50 0
-105 110 c-58 60 -162 168 -230 239 -68 72 -174 182 -235 245 -61 63 -346 363
-635 665 -288 303 -559 586 -602 630 l-78 80 2 -850 c3 -759 5 -854 19 -885
37 -79 102 -110 247 -118 l102 -5 0 -44 0 -43 -432 2 -433 3 0 40 0 40 84 7
c109 9 166 37 201 99 l25 44 0 945 0 944 -53 27 c-52 26 -112 42 -204 54 l-48
6 0 40 0 39 299 0 300 0 20 -25z m-2745 -3556 c100 -28 109 -29 131 -15 38 25
63 20 69 -11 8 -38 36 -263 36 -285 0 -12 -8 -18 -25 -18 -20 0 -30 10 -51 55
-94 192 -321 283 -500 201 -85 -39 -134 -129 -119 -220 18 -106 93 -180 335
-331 240 -150 349 -248 404 -365 27 -57 31 -76 30 -150 0 -111 -26 -180 -100
-259 -139 -151 -357 -196 -614 -127 -102 28 -145 32 -155 16 -3 -5 -19 -10
-34 -10 l-28 0 -22 163 c-13 89 -25 175 -28 190 -6 27 -4 28 27 25 29 -3 34
-8 53 -58 84 -227 307 -333 529 -250 111 41 172 128 173 245 0 130 -60 195
-366 398 -238 158 -312 224 -366 334 -32 64 -36 83 -36 146 0 126 66 234 181
295 84 45 153 61 268 61 84 1 119 -4 208 -30z m1756 16 c11 -13 94 -15 640
-15 546 0 629 2 640 15 15 18 70 20 70 3 0 -7 9 -96 19 -198 11 -102 16 -188
13 -192 -15 -15 -52 5 -58 31 -21 100 -48 167 -79 198 l-33 33 -231 0 -231 0
0 -627 c0 -479 3 -634 13 -652 26 -51 60 -65 167 -69 l100 -4 0 -29 0 -29
-390 0 -390 0 0 30 0 30 83 1 c98 0 143 14 171 52 21 28 21 37 24 663 l3 634
-228 0 c-161 0 -235 -4 -253 -13 -33 -16 -65 -82 -86 -173 -9 -41 -19 -74 -23
-75 -3 0 -16 -2 -28 -5 -28 -5 -27 -18 -8 194 21 218 19 212 54 212 16 0 34
-7 41 -15z m-3355 -34 c162 -43 283 -128 334 -233 94 -196 10 -437 -187 -535
l-58 -30 129 -164 c359 -457 369 -466 540 -503 22 -5 27 -12 27 -38 l0 -31
-112 6 c-135 8 -216 27 -280 68 -69 44 -204 191 -360 390 -75 96 -145 182
-155 190 -15 12 -46 14 -170 11 l-153 -4 0 -229 c0 -313 8 -329 166 -337 l84
-5 0 -28 0 -29 -350 0 -350 0 0 29 c0 28 0 28 76 33 87 6 122 25 141 79 17 48
17 1180 0 1228 -19 53 -52 71 -140 78 -77 6 -77 6 -77 34 0 28 2 29 48 30 26
1 94 5 152 9 58 4 220 7 360 5 226 -2 264 -4 335 -24z m-8760 -16 c0 -30 -1
-30 -65 -36 -75 -6 -103 -19 -128 -56 -15 -25 -17 -64 -17 -458 0 -469 1 -478
62 -599 51 -100 167 -184 303 -217 72 -18 279 -18 350 0 182 45 288 140 343
304 19 57 21 89 25 428 2 216 -1 396 -7 439 -15 114 -48 145 -164 158 -61 7
-62 7 -65 40 l-3 32 293 -2 293 -3 0 -30 c0 -29 -2 -30 -60 -37 -63 -8 -95
-26 -129 -72 -20 -26 -21 -43 -27 -464 -5 -419 -6 -440 -28 -507 -65 -201
-196 -335 -388 -399 -157 -53 -409 -60 -563 -16 -178 51 -319 159 -385 294
-67 137 -68 143 -74 648 l-6 458 -26 26 c-23 22 -38 27 -98 32 l-71 5 0 33 0
34 318 -2 317 -3 0 -30z m1885 -2 c18 -21 90 -97 159 -168 69 -72 306 -318
526 -548 l400 -417 3 492 c2 333 -1 505 -8 530 -14 49 -52 69 -150 77 l-75 6
0 30 0 30 293 3 293 2 -3 -32 -3 -33 -75 -6 c-80 -5 -113 -18 -130 -49 -6 -12
-10 -261 -10 -719 l0 -701 -39 0 c-38 0 -46 8 -337 313 -164 171 -346 362
-404 422 -59 61 -203 211 -321 334 l-214 224 -3 -514 c-2 -283 0 -538 3 -567
11 -93 70 -132 200 -132 43 0 45 -1 45 -30 l0 -30 -290 0 -290 0 0 29 c0 27 2
28 62 35 68 7 99 22 125 63 17 25 18 75 21 650 l3 624 -48 21 c-26 12 -73 24
-103 27 -53 6 -55 7 -58 39 l-3 32 199 0 200 0 32 -37z m2368 5 c-3 -32 -4
-33 -63 -39 -33 -3 -72 -13 -87 -23 -52 -34 -53 -44 -53 -676 0 -636 -1 -620
56 -662 16 -12 50 -22 87 -25 60 -6 62 -7 62 -34 l0 -29 -300 0 -300 0 0 29
c0 26 4 29 45 34 25 4 58 13 74 21 56 30 56 27 56 681 0 555 -1 603 -17 628
-23 34 -48 47 -108 54 -49 6 -50 7 -50 39 l0 34 301 0 300 0 -3 -32z m904 20
c3 -7 3 -22 0 -34 -3 -19 -12 -22 -81 -27 -118 -8 -168 -40 -158 -101 3 -19
44 -130 91 -247 48 -118 144 -357 214 -531 70 -175 129 -318 133 -318 3 0 42
98 88 218 136 354 230 601 271 707 48 125 59 171 48 211 -10 41 -45 56 -140
62 l-78 5 0 33 0 34 290 0 290 0 0 -35 c0 -34 -1 -35 -38 -35 -57 0 -122 -38
-158 -91 -17 -25 -52 -102 -79 -170 -26 -68 -67 -173 -91 -234 -23 -60 -86
-222 -139 -360 -53 -137 -130 -337 -171 -442 l-76 -193 -66 0 -67 0 -275 686
c-151 378 -284 702 -295 722 -30 53 -68 76 -133 82 -56 5 -57 6 -60 38 l-3 32
340 0 c257 0 340 -3 343 -12z m2309 -78 c4 -47 9 -125 10 -175 l4 -90 -27 -3
c-23 -3 -28 1 -33 25 -24 108 -47 162 -80 192 l-36 31 -279 0 -280 0 0 -285 0
-285 244 0 243 0 26 26 c23 22 47 95 47 139 0 10 10 15 30 15 l30 0 0 -240 0
-240 -29 0 c-26 0 -29 4 -35 42 -11 67 -42 127 -71 138 -15 6 -128 10 -256 10
l-230 0 3 -282 c3 -308 5 -318 59 -337 51 -18 473 -15 535 4 75 22 117 76 158
203 16 47 20 52 47 52 16 0 29 -5 29 -10 0 -19 -30 -294 -35 -327 l-6 -33
-649 0 -650 0 0 29 0 28 99 5 c74 4 107 10 132 24 66 39 64 17 64 674 0 556
-1 597 -18 628 -23 42 -69 62 -141 62 -73 0 -86 6 -86 41 l0 29 588 -2 587 -3
6 -85z m4231 73 c9 -42 -2 -53 -57 -53 -67 0 -115 -30 -133 -85 -10 -30 -12
-170 -10 -631 3 -585 3 -593 24 -621 23 -30 77 -51 137 -52 34 -1 37 -3 37
-31 l0 -30 -300 0 -300 0 0 29 c0 27 3 29 57 36 72 9 108 42 118 106 3 24 5
305 3 624 -3 495 -5 583 -18 603 -16 24 -75 50 -125 54 -26 3 -30 8 -33 36
l-3 32 300 0 c277 0 300 -1 303 -17z m2578 -18 c0 -35 0 -35 -44 -35 -106 0
-137 -23 -112 -84 14 -34 377 -600 400 -624 9 -9 18 -1 42 40 17 29 93 159
169 288 152 258 171 297 161 333 -7 30 -23 37 -96 46 -53 6 -55 7 -55 36 l0
30 270 3 c148 1 275 0 281 -2 6 -2 9 -18 6 -35 -4 -26 -9 -31 -32 -31 -42 0
-118 -26 -160 -55 -52 -36 -72 -66 -305 -460 l-206 -347 3 -217 c4 -282 11
-296 158 -310 62 -6 65 -7 68 -33 l3 -28 -345 0 -346 0 0 30 0 30 63 1 c81 1
127 18 155 59 21 32 22 42 22 241 l0 208 -236 368 c-129 202 -252 388 -273
413 -52 62 -108 91 -187 98 l-64 5 0 33 0 34 330 0 330 0 0 -35z"/>
<path d="M7490 9703 c-187 -24 -362 -113 -486 -244 -396 -423 -384 -1194 25
-1623 170 -177 373 -279 612 -307 182 -21 335 3 484 76 301 146 484 471 502
891 26 609 -291 1081 -800 1190 -73 16 -273 26 -337 17z"/>
<path d="M14995 9703 c-139 -17 -308 -87 -410 -170 -174 -141 -299 -368 -350
-634 -21 -110 -21 -338 0 -458 42 -243 142 -444 304 -613 127 -134 286 -227
471 -275 122 -32 344 -37 453 -10 355 88 595 394 658 836 18 128 6 371 -24
501 -106 453 -423 761 -841 819 -74 10 -196 12 -261 4z"/>
<path d="M4568 9703 l-78 -4 0 -446 0 -445 273 5 c296 5 366 16 463 73 130 76
193 234 165 417 -30 200 -155 331 -364 383 -64 16 -310 25 -459 17z"/>
<path d="M4490 8304 c0 -349 3 -441 16 -494 39 -169 155 -227 429 -217 155 6
219 21 324 77 155 83 251 266 251 480 0 265 -162 473 -430 550 -66 19 -108 23
-332 27 l-258 6 0 -429z"/>
<path d="M12690 5741 l0 -391 118 0 c188 0 287 33 366 120 58 65 78 120 83
235 7 124 -8 199 -50 262 -73 109 -175 151 -384 160 l-133 6 0 -392z"/>
</g>
</svg>
